# xmcd
# 
# Track frame offsets:
#     150
#     9861
#     24287
#     34787
#     46079
#     59345
#     72618
#     86516
#     96443
#     109526
#     119253
#     129036
#     139859
#     152149
# 
# Disc length: 2171
# 
# Revision: 1
# Processed by: cddbd v1.5.2PL0 Copyright (c) Steve Scherf et al.
# Submitted via: BonkEnc v1.0.15
# 
DISCID=ac08790e
DTITLE=Various Artist - The Magic Of The Blues
DYEAR=2002
DGENRE=Blues
TTITLE0=EARL HOOKER - Rockin' Wild
TTITLE1=MAGIC SAM - Looking Good
TTITLE2=BILLY BOY ARNOLD - Kissing At Midnight
TTITLE3=JOHN LEE HOOKER - I Want To Ramble
TTITLE4=MAGIC SAM - All Your Love
TTITLE5=B.B. KING - I Need You So Bad
TTITLE6=SHAKEY JAKE - Cal Me If You Need Me
TTITLE7=MAGIC SAM - Every Night About This Time
TTITLE8=LOWELL FULSON - Every Time It Rains
TTITLE9=MAGIC SAM - Look Whatcha Done
TTITLE10=ROSCO GORDON - Just A Little Bit
TTITLE11=OTIS RUSH - Keep On Loving Me Baby
TTITLE12=JESSE FORTUNE feat. BUDDY GUY - Good Tings
TTITLE13=MAGIC SAM - Out Of Bad Luck
EXTD=Blues and Soul Records No.48
EXTT0=
EXTT1=
EXTT2=
EXTT3=
EXTT4=
EXTT5=
EXTT6=
EXTT7=
EXTT8=
EXTT9=
EXTT10=
EXTT11=
EXTT12=
EXTT13=
PLAYORDER=
